<svg viewBox="0 0 1000 1000" xmlns="http://www.w3.org/2000/svg"><path d="m421.21 429.46s-92 344.59-112.69 466.21l-15.52 7.76 102.21 25.88 84.1-227.71 35.55-268.78" fill="#ff6498"/><path d="m498 560c-8.13-24.51-18.59-39.27-30-39.27-25.86 0-46.83 75.7-46.83 169.09 0 50.31 6.09 95.49 15.75 126.46l42.39-114.68z"/><path d="m447.9 436s-20.19 329.5 36.82 485.5l-11.91 17.5h101.41s11.08-419.09 11.08-509.54z" fill="#ff6498"/><path d="m524.94 181.09v42.82l-53.04 13.03v-72.26l53.04-13.03z" fill="#edeeef"/><circle cx="494.98" cy="194.48" r="1.42"/><circle cx="516.76" cy="194.48" r="1.42"/><path d="m510.37 202.94v-21.85" fill="none" stroke="#000" stroke-miterlimit="10" stroke-width="2"/><path d="m492.31 181.09h10.95" fill="none" stroke="#000" stroke-miterlimit="10" stroke-width="2"/><path d="m475.39 192.29v7.59a7.42 7.42 0 0 1 -7.41-7.42c0-.23 0-.45 0-.67.44-4.61 7.41-4.13 7.41.5z" fill="#edeeef"/><g fill="none" stroke-miterlimit="10" stroke-width="2"><path d="m475.39 199.88a7.42 7.42 0 0 1 -7.41-7.42" stroke="#000"/><path d="m505.58 208.33a7.5 7.5 0 0 1 -7.5-7.5" stroke="#ff6498"/><g stroke="#000"><path d="m524.94 223.91-53.04 13.03"/><path d="m510.37 202.96-4.79 1.18" stroke-linecap="round"/></g></g><path d="m421.21 313.62v115.84l164.09 40.33v-129a99.38 99.38 0 0 0 -75.65-96.5 71.41 71.41 0 0 0 -88.44 69.34z" fill="#edeeef"/><g fill="none" stroke="#000" stroke-miterlimit="10" stroke-width="2"><path d="m447.9 436s-20.19 329.5 36.82 485.5"/><path d="m527.81 183.47c-21.5 5.5-39.75-12.25-39.75-12.25s-2.34 15.5-9.25 15.75"/><path d="m524.94 197.47s12.37-21.75 9.37-35.25c0 0-12.75-19.5-42-19s-31.75 28.95-20.62 45.35"/></g><path d="m481.81 275.22-6.42.5-16.58-11-3 27 19.58-8.5 3.42-.5 19.61 12 1.76-30z"/><g fill="none" stroke="#000" stroke-miterlimit="10" stroke-width="2"><path d="m543.21 259.57s146.6 120.15 11.6 267.15l-31.81-26.72 23.78-106.85-21.87-48.43"/><path d="m554.81 526.72-57.03-47.94"/><path d="m446 259.57s-34.15 25.81-57.48 108.48c0 0-45.34-82.67-52-84.67s-8.67 4.67-8.67 4.67-40-7.33-38.67 2.67 28 18 28 18-14.26 184.15 99.52 137.74"/></g></svg>