<svg viewBox="0 0 1000 1000" xmlns="http://www.w3.org/2000/svg"><path d="m494.05 246.06s-98.1 2.47-139.81 20.46l4.39-62.4s8.72-2.35 7.54-11.59a16.51 16.51 0 0 0 -.49-2.4c-3.17-11.25 10.61-20.68-7.75-21.86s-95.12 103.15-76.3 145.37 139 42.53 179.5 29.19" fill="none" stroke="#000" stroke-miterlimit="10" stroke-width="2"/><path d="m689.74 643-204 1 25.78-104.3-75.77-88.55s-96 85.55-74 229.55 313 45 313 45l15 13z" fill="#ff6498"/><path d="m501.69 579.44c-52.25 4.67-93.69 71.93-93.69 154.23 0 3.31.07 6.58.21 9.83 52.91 25.83 138.65 14.13 198.56.7q.22-5.22.23-10.53c0-33.67-6.94-64.82-18.72-90.2l-102.54.5z"/><path d="m444.8 436s-20.19 329.5 36.83 485.5l-11.91 17.5h101.41s11.08-419.09 11.08-509.54z" fill="#ff6498"/><path d="m526.68 181.09v42.82l-53.04 13.03v-72.26l53.04-13.03z" fill="#edeeef"/><circle cx="496.72" cy="194.48" r="1.42"/><circle cx="518.5" cy="194.48" r="1.42"/><path d="m512.11 202.94v-21.85h10.95" fill="none" stroke="#000" stroke-miterlimit="10" stroke-width="2"/><path d="m494.05 181.09h10.95" fill="none" stroke="#000" stroke-miterlimit="10" stroke-width="2"/><path d="m477.13 192.29v7.59a7.42 7.42 0 0 1 -7.41-7.42c0-.23 0-.45 0-.67.44-4.61 7.41-4.13 7.41.5z" fill="#edeeef"/><g fill="none" stroke-miterlimit="10" stroke-width="2"><path d="m477.13 199.88a7.42 7.42 0 0 1 -7.41-7.42" stroke="#000"/><path d="m507.32 208.33a7.5 7.5 0 0 1 -7.5-7.5" stroke="#ff6498"/><g stroke="#000"><path d="m526.68 223.91-53.04 13.03"/><path d="m512.11 202.96-4.79 1.18" stroke-linecap="round"/><path d="m470.49 189.84-3.43-37.17 65.83-7.16-6.21 22.66-41.79 5.5s.26 9.42-5.5 12.17l-2.26 5.16"/></g></g><path d="m582.21 313.62v115.84l-164.1 40.33v-129a99.38 99.38 0 0 1 75.65-96.5 71.41 71.41 0 0 1 88.45 69.34z" fill="#edeeef"/><g fill="none" stroke="#000" stroke-miterlimit="10" stroke-width="2"><path d="m582.21 429.46-164.1 40.33"/><path d="m444.8 436s-20.19 329.5 36.83 485.5"/><path d="m517.08 242.19s97.42-11.77 141.3 0l-13.38-61.1s-9-1.07-9.14-10.39a16.13 16.13 0 0 1 .14-2.44c1.5-11.59-13.5-18.92 4.5-22.75s108.51 79.16 96 123.66-130.84 71.34-172.84 64"/></g></svg>